<!-- Generator: Adobe Illustrator 24.1.0, SVG Export Plug-In  -->
<svg version="1.1" xmlns="http://www.w3.org/2000/svg" xmlns:xlink="http://www.w3.org/1999/xlink" x="0px" y="0px" width="216px"
	 height="240px" viewBox="0 0 216 240" style="enable-background:new 0 0 216 240;" xml:space="preserve">
<style type="text/css">
	.st0{fill:none;}
	.st1{fill:#FFFFFF;}
</style>
<defs>
</defs>
<g>
	<g>
		<path class="st0" d="M216,240H0V0h216V240z M31.38,208.62h153.23V31.38H31.38V208.62z"/>
	</g>
	<g>
		<path class="st1" d="M178.25,125.11c0.02-0.35,0-0.7,0-1.04c0-0.12,0.04-0.25,0-0.35c-0.24-0.51-0.13-1.06-0.2-1.58
			c-0.15-1.29,0.07-2.61-0.13-3.92c-0.1-0.61,0.06-1.24-0.12-1.86c-0.07-0.22,0.01-0.5-0.02-0.75c-0.02-0.23-0.13-0.47-0.09-0.7
			c0.04-0.23-0.02-0.44-0.02-0.66c-0.02-2.21-0.07-4.43-0.11-6.64c0-0.1,0.03-0.21-0.01-0.29c-0.4-0.8-0.1-1.71-0.44-2.52
			c-0.21-0.51-0.05-1.13-0.35-1.64c-0.03-0.06,0-0.16-0.01-0.22c-0.12-0.75-0.19-1.49-0.37-2.21c-0.35-1.46-0.82-2.88-1.29-4.31
			c-0.36-1.08-0.85-2.11-1.38-3.12c-0.55-1.06-1.1-2.11-1.88-3.02c-0.29-0.35-0.62-0.66-0.89-1.02c-0.62-0.86-1.45-1.47-2.3-2.07
			c-0.75-0.53-1.57-0.91-2.41-1.28c-0.62-0.27-1.19-0.65-1.82-0.9c-0.77-0.32-1.58-0.57-2.37-0.8c-0.54-0.17-1.09-0.28-1.64-0.35
			c-0.6-0.07-1.19-0.04-1.8-0.1c-1.14-0.12-2.31-0.12-3.47-0.13c-0.67-0.01-1.35,0.07-2.02,0.11c-0.56,0.03-1.13,0.03-1.68,0.12
			c-0.98,0.16-1.97,0.34-2.93,0.58c-1.14,0.28-2.18,0.75-2.89,1.78c-0.51,0.75-0.88,1.53-1.17,2.41c-0.37,1.14-0.41,2.27-0.18,3.4
			c0.19,0.91-0.01,1.82,0.18,2.74c0.11,0.52-0.03,1.11-0.09,1.66c-0.04,0.36-0.05,0.71-0.11,1.07c-0.06,0.31-0.12,0.62-0.11,0.93
			c0.02,0.87-0.22,1.69-0.33,2.54c-0.12,0.82-0.17,1.66-0.26,2.49c-0.02,0.18-0.08,0.35-0.11,0.53c-0.05,0.31-0.11,0.62-0.12,0.93
			c-0.01,0.54-0.14,1.05-0.3,1.55c-0.11,0.32-0.21,0.65-0.28,0.98c-0.11,0.47-0.18,0.96-0.3,1.44c-0.19,0.8-0.35,1.62-0.64,2.38
			c-0.33,0.88-0.55,1.79-1.16,2.59c-0.71,0.92-1.48,1.78-2.31,2.6c-0.14,0.14-0.3,0.32-0.48,0.36c-0.46,0.1-0.87,0.31-1.34,0.4
			c-0.92,0.17-1.82,0.5-2.71,0.8c-1.1,0.37-2.2,0.75-3.33,1.02c-0.45,0.11-0.91,0.12-1.34,0.24c-0.74,0.22-1.5,0.15-2.23,0.32
			c-0.19,0.05-0.39,0.07-0.59,0.12c-0.17,0.04-0.33-0.08-0.54-0.02c-0.31,0.1-0.66,0.12-0.99,0.12c-0.71,0.02-1.43-0.02-2.14,0.12
			c-0.4,0.07-0.83,0.03-1.22,0.13c-0.61,0.16-1.25,0.1-1.87,0.22c-0.31,0.06-0.62,0.08-0.93,0.12c-0.32,0.04-0.62,0.08-0.94,0.12
			c-0.37,0.04-0.74,0.07-1.1,0.12c-0.27,0.03-0.54,0.09-0.81,0.12c-0.51,0.05-1.02,0.03-1.51,0.12c-0.66,0.13-1.31,0.22-1.98,0.22
			c-0.09,0-0.2-0.02-0.28,0c-0.97,0.32-1.97,0.22-2.96,0.23c-0.16,0-0.32-0.04-0.46,0.01c-0.51,0.17-1.04,0.21-1.58,0.22
			c-0.48,0.02-0.97,0.07-1.45,0.12c-0.16,0.02-0.32,0.1-0.47,0.11c-2.04,0.04-4.07,0.08-6.11,0.12c-0.23,0.01-0.46,0-0.7,0
			c-0.09,0-0.2-0.02-0.28,0.01c-0.53,0.17-1.08,0.24-1.63,0.22c-0.22-0.01-0.44-0.04-0.64,0.01c-0.66,0.17-1.34,0.24-2.03,0.22
			c-0.1,0-0.21-0.03-0.29,0c-0.62,0.26-1.29,0.19-1.93,0.34c-0.54,0.12-1.12,0.12-1.63,0.27c-0.84,0.24-1.7,0.15-2.53,0.4
			c-0.74,0.22-1.5,0.36-2.25,0.57c-0.55,0.17-1.07,0.36-1.59,0.61c-1,0.45-2.1,0.67-3.06,1.25c-0.79,0.48-1.6,0.94-2.28,1.55
			c-0.96,0.86-1.87,1.8-2.58,2.9c-0.17,0.27-0.32,0.56-0.49,0.83c-0.41,0.67-0.69,1.42-0.88,2.17c-0.19,0.76-0.36,1.53-0.59,2.3
			c-0.1,0.34-0.17,0.7-0.23,1.05c-0.08,0.37-0.15,0.75-0.22,1.12c-0.08,0.46-0.18,0.93-0.25,1.39c-0.06,0.46-0.02,0.94-0.13,1.39
			c-0.08,0.33-0.01,0.69-0.12,0.99c-0.27,0.76-0.18,1.56-0.31,2.34c-0.12,0.72-0.01,1.46-0.12,2.2c-0.12,0.8-0.06,1.62-0.11,2.43
			c-0.12,1.75-0.13,3.5-0.13,5.26c-0.01,1.16,0.06,2.32,0.11,3.48c0.05,1.46-0.03,2.93,0.08,4.4c0.16,1.93-0.07,3.88,0.13,5.82
			c0.06,0.57,0.01,1.15,0.01,1.73c0,0.13-0.03,0.28,0.01,0.4c0.17,0.47,0.23,0.96,0.22,1.47c0,0.19-0.07,0.41,0.02,0.56
			c0.28,0.52,0.21,1.11,0.31,1.66c0.15,0.87,0.4,1.72,0.66,2.55c0.25,0.8,0.66,1.55,1.24,2.2c0.28,0.32,0.51,0.68,0.79,1
			c0.45,0.51,0.89,1.04,1.39,1.5c0.84,0.77,1.73,1.48,2.57,2.25c0.74,0.66,1.43,1.37,2.16,2.03c0.35,0.32,0.73,0.62,1.14,0.85
			c1.28,0.71,2.65,1.24,3.86,2.08c1.44,0.41,2.78,1.09,4.26,1.43c1.48,0.33,2.96,0.78,4.48,0.97c0.75,0.09,1.52,0.22,2.26,0.22
			c1.48,0.02,2.97,0.14,4.45-0.07c0.7-0.1,1.43-0.08,2.14-0.11c3.05-0.12,6.11,0.07,9.17-0.11c0.9-0.05,1.77-0.24,2.67-0.28
			c0.8-0.03,1.6-0.28,2.4-0.43c0.31-0.06,0.62-0.07,0.92-0.16c0.62-0.17,1.23-0.36,1.84-0.56c1.02-0.35,2.06-0.61,3.13-0.8
			c0.91-0.17,1.83-0.31,2.75-0.45c0.27-0.03,0.51-0.15,0.77-0.21c0.6-0.14,1.11-0.49,1.68-0.69c0.61-0.22,1.18-0.52,1.72-0.87
			c0.55-0.36,1.07-0.75,1.6-1.14c0.52-0.36,1.1-0.65,1.45-1.22c0.38-0.07,0.41-0.47,0.61-0.71c0.29-0.33,0.68-0.59,0.91-0.95
			c0.57-0.87,1.23-1.64,1.99-2.35c0.7-0.65,1.29-1.42,1.96-2.16c0.4-0.51,0.8-0.98,1.12-1.48c0.28-0.45,0.64-0.83,0.88-1.3
			c0.6-1.2,1.14-2.41,1.48-3.72c0.12-0.46,0.25-0.94,0.34-1.41c0.1-0.52,0.17-1.05,0.24-1.58c0.04-0.35,0.02-0.72,0.14-1.04
			c0.28-0.72,0.38-1.5,0.41-2.24c0.04-1.24,0.13-2.51-0.07-3.76c-0.12-0.71-0.08-1.43-0.13-2.14c-0.02-0.27-0.06-0.55-0.12-0.81
			c-0.25-1.15-0.8-1.43-1.63-1.45c-1-0.02-1.92-0.51-2.92-0.5c-0.29,0-0.59-0.14-0.88-0.22c-0.28-0.07-0.55-0.19-0.83-0.22
			c-0.27-0.02-0.57,0.14-0.83,0.07c-0.28-0.07-0.51-0.12-0.79,0.01c-0.26,0.12-0.55-0.21-0.81,0.02c-0.99-0.05-1.88,0.42-2.86,0.49
			c-0.54,0.04-1.08,0.22-1.63,0.2c-0.36-0.01-0.75-0.07-1.09,0.02c-0.56,0.15-1.14,0.16-1.72,0.2c-1.67,0.11-3.34-0.04-5.03,0.1
			c-1,0.09-2.03,0.1-3.06-0.07c-0.82-0.13-1.63,0.18-2.46,0.21c-1.58,0.05-3.16-0.07-4.74,0.12c-0.6,0.07-1.2-0.02-1.81,0.09
			c-0.26,0.04-0.39,0.27-0.65,0.26c-0.36-0.02-0.69,0.03-1.01,0.21c-0.09,0.06-0.25,0-0.38,0c0.03-0.1,0.07-0.19,0.08-0.29
			c0.02-0.11,0-0.22-0.01-0.34c-0.03-0.41-0.07-0.83-0.1-1.24c-0.02-0.28,0.11-0.53,0.33-0.66c0.32-0.18,0.68-0.41,1.03-0.41
			c0.75-0.02,1.41-0.43,2.16-0.36c0.59-0.44,1.29-0.18,1.94-0.32c0.72-0.16,1.49-0.07,2.25-0.12c1.75-0.12,3.51,0.07,5.26-0.12
			c1.15-0.12,2.31,0.03,3.48-0.21c0.76-0.16,1.58-0.15,2.37-0.26c0.69-0.09,1.39-0.03,2.09-0.1c1.2-0.12,2.42-0.1,3.63-0.14
			c0.52-0.02,1.05,0.02,1.58-0.09c0.66-0.13,1.34-0.1,2.02-0.14c0.75-0.05,1.5,0.03,2.26-0.09c0.84-0.13,1.69-0.1,2.55-0.14
			c0.27-0.01,0.54,0.01,0.82-0.09c0.34-0.12,0.73-0.08,1.09-0.14c0.52-0.08,1.04-0.19,1.56-0.27c0.24-0.04,0.5,0.01,0.72-0.07
			c0.89-0.32,1.84-0.28,2.75-0.42c0.99-0.14,2.01-0.15,3.01-0.22c1.05-0.07,2.07-0.26,3.08-0.42c0.74-0.13,1.49-0.19,2.23-0.29
			c0.78-0.1,1.55-0.25,2.33-0.36c1.22-0.17,2.39-0.56,3.58-0.85c1.34-0.32,2.6-0.94,3.86-1.52c1.07-0.5,2.03-1.16,2.98-1.84
			c0.93-0.66,1.84-1.37,2.6-2.23c0.2-0.22,0.37-0.47,0.58-0.68c0.98-0.98,1.62-2.19,2.26-3.39c0.39-0.71,0.73-1.46,1.07-2.21
			c0.38-0.85,0.74-1.69,1.01-2.58c0.2-0.67,0.32-1.37,0.49-2.05c0.19-0.78,0.27-1.55,0.31-2.34c0.04-0.86-0.04-1.73,0.02-2.6
			C178.33,126.7,178.18,125.9,178.25,125.11z M126.54,164.88c0.11-0.09,0.16-0.03,0.26-0.01c0.44,0.07,0.89,0.1,1.33,0.13
			c0.65,0.03,1.21,0.28,1.66,0.72c0.47,0.45,1.01,0.85,1.27,1.49c0.21,0.52,0.43,1.03,0.4,1.62c-0.03,0.56-0.05,1.12,0.01,1.67
			c0.05,0.48-0.17,0.86-0.38,1.23c-0.12,0.23-0.41,0.36-0.62,0.54c-0.26,0.22-0.48,0.48-0.76,0.68c-0.45,0.32-0.92,0.63-1.41,0.9
			c-0.64,0.35-1.28,0.71-2.01,0.86c-0.16,0.03-0.32,0.08-0.48,0.08c-0.66,0.03-1.32,0.05-1.99,0.08c-0.01,0-0.03,0.02-0.04,0.04
			c-0.17-0.23-0.5-0.28-0.66-0.46c-0.48-0.56-0.93-1.16-1.02-1.94c-0.03-0.22-0.15-0.44-0.22-0.65c-0.04-0.56-0.14-1.01-0.1-1.45
			c0.07-0.8,0.11-1.63,0.36-2.38c0.3-0.9,0.82-1.76,1.65-2.29c0.43-0.27,0.95-0.47,1.51-0.52
			C125.72,165.18,126.18,165.18,126.54,164.88z"/>
		<path class="st1" d="M74.3,120.64c0.62-0.45,1.27-0.82,1.95-1.16c0.35-0.17,0.7-0.34,1.07-0.46c0.51-0.17,1.05-0.27,1.56-0.41
			c0.78-0.21,1.55-0.46,2.34-0.62c0.84-0.17,1.68-0.3,2.51-0.46c1-0.2,2.02-0.38,3.04-0.45c0.93-0.07,1.86-0.19,2.79-0.23
			c1.18-0.06,2.36-0.09,3.53-0.24c0.54-0.07,1.08-0.02,1.63-0.11c0.69-0.1,1.39-0.01,2.09-0.11c0.63-0.1,1.29-0.06,1.92-0.12
			c0.59-0.07,1.19-0.02,1.79-0.02c0.59,0,1.19-0.02,1.78,0.01c0.53,0.03,1.05-0.06,1.59-0.03c1.48,0.09,2.97,0.01,4.45,0.12
			c0.96,0.07,1.93,0.04,2.91-0.07c0.81-0.1,1.66,0.03,2.49,0.07c1.46,0.07,2.93,0.07,4.45-0.09c0.37-0.03,0.68-0.08,1-0.12
			c0.83-0.07,1.66-0.2,2.5-0.22c0.91-0.02,1.82-0.1,2.73-0.22c0.56-0.08,1.1-0.22,1.65-0.34c0.74-0.17,1.48-0.32,2.22-0.49
			c0.66-0.15,1.34-0.27,1.99-0.46c0.5-0.15,0.96-0.38,1.43-0.57c0.88-0.35,1.72-0.8,2.39-1.46c0.94-0.92,1.92-1.8,2.64-2.93
			c0.38-0.58,0.72-1.16,0.95-1.8c0.25-0.7,0.37-1.43,0.59-2.12c0.28-0.94,0.34-1.88,0.4-2.82c0.08-1.25,0.08-2.51,0.25-3.77
			c0.07-0.57,0.05-1.16,0.1-1.74c0.12-1.26,0.1-2.54,0.14-3.81c0.05-1.31-0.08-2.62,0.1-3.93c0.08-0.63-0.09-1.29-0.04-1.92
			c0.02-0.27-0.05-0.51-0.03-0.75c0.05-0.57,0.19-1.14,0.19-1.7c0-0.66,0.15-1.33-0.1-1.97c0.25-0.65,0.04-1.32,0.12-1.97
			c0.02-0.17,0.16-0.4,0.1-0.52c-0.17-0.33-0.08-0.66-0.1-1c-0.07-2.23,0.08-4.46-0.09-6.69c-0.07-0.84-0.19-1.67-0.26-2.5
			c-0.02-0.32-0.04-0.64-0.13-0.93c-0.32-1.04-0.66-2.07-1.01-3.09c-0.24-0.71-0.44-1.43-0.66-2.14c-0.27-0.87-0.7-1.64-1.14-2.41
			c-0.41-0.72-0.87-1.41-1.32-2.11c-0.35-0.53-0.68-1.09-1.2-1.46c-1.06-0.75-2.15-1.48-3.23-2.21c-0.27-0.17-0.56-0.32-0.83-0.49
			c-0.56-0.33-1.09-0.71-1.66-1c-0.65-0.35-1.33-0.6-2.07-0.73c-0.83-0.14-1.63-0.51-2.45-0.75c-0.74-0.22-1.48-0.41-2.22-0.61
			c-0.85-0.23-1.7-0.45-2.54-0.7c-0.52-0.17-1.02-0.45-1.55-0.56c-1.4-0.29-2.77-0.76-4.21-0.82c-0.32-0.01-0.66,0-0.93-0.12
			c-0.72-0.32-1.49-0.2-2.23-0.31c-0.83-0.12-1.69,0-2.54-0.13c-0.56-0.08-1.12,0.01-1.69-0.1c-0.7-0.13-1.42-0.12-2.13-0.13
			c-0.65-0.02-1.29,0.03-1.93,0.09c-0.96,0.08-1.93-0.01-2.89,0.12c-0.56,0.08-1.14,0.02-1.68,0.14c-0.37,0.08-0.75,0.03-1.1,0.11
			c-0.83,0.17-1.65,0.36-2.47,0.57c-0.82,0.2-1.65,0.37-2.46,0.63c-1.46,0.46-2.9,0.95-4.35,1.44c-0.57,0.19-1.14,0.43-1.73,0.56
			c-1.61,0.37-3.09,1.05-4.59,1.72c-0.97,0.43-1.87,0.97-2.76,1.53c-0.77,0.49-1.54,1.01-2.1,1.74c-0.57,0.75-1.19,1.44-1.71,2.22
			c-0.42,0.66-0.68,1.38-1,2.07c-0.27,0.57-0.41,1.18-0.55,1.78c-0.14,0.67-0.27,1.34-0.24,2.04c0.04,1.14,0.08,2.27,0.11,3.41
			c0.02,0.42,0.01,0.85,0.01,1.27c0,0.13,0,0.27,0.02,0.39c0.07,0.43,0.17,0.86,0.21,1.3c0.03,0.47-0.07,0.98,0.02,1.43
			c0.1,0.41,0.09,0.83,0.2,1.24c0.09,0.33,0.04,0.71,0.14,1.04c0.13,0.47,0.08,0.94,0.1,1.4c0.01,0.15-0.03,0.32,0.01,0.46
			c0.17,0.56,0.23,1.12,0.22,1.69c-0.01,0.44-0.01,0.89,0,1.33c0.02,0.59,0.38,1.06,0.87,1.1c0.7,0.05,1.39,0.08,2.08,0.12
			c0.33,0.02,0.65-0.09,1-0.04c0.31,0.05,0.66,0.01,1,0.04c0.16,0.02,0.23-0.03,0.27-0.19c0.01-0.05,0.12-0.1,0.2-0.1
			c0.24,0.01,0.48,0.06,0.72,0.06c0.88,0.01,1.78-0.07,2.65,0.02c0.86,0.08,1.71-0.34,2.56-0.02c0.82-0.24,1.66-0.05,2.49-0.1
			c0.4-0.02,0.8,0.02,1.19-0.2c0.14-0.07,0.36,0,0.54,0.02c0.08,0.01,0.19,0.08,0.26,0.06c0.25-0.12,0.47,0.02,0.71,0.01
			c0.29-0.02,0.58,0,0.86-0.01c0.75,0,1.48,0.07,2.21,0.23c0.34,0.07,0.75,0.2,1.04,0.09c0.45-0.18,0.88,0.14,1.31-0.07
			c0.15-0.07,0.41,0.14,0.57,0.08c0.34-0.12,0.64-0.01,0.95,0c1.11,0.01,2.23-0.04,3.35-0.11c0.64-0.03,1.28-0.18,1.92-0.21
			c0.76-0.04,1.53-0.02,2.3-0.01c0.65,0,0.99,0.34,0.99,0.98c0,0.43-0.02,0.85,0.21,1.24c0.03,0.06,0.02,0.15,0.02,0.22
			c0,0.82,0.01,1.65,0,2.47c0,0.3-0.19,0.48-0.48,0.49c-0.41,0.02-0.81,0.04-1.23,0.1c-0.61,0.08-1.24,0.1-1.85,0.11
			c-1.27,0.02-2.54,0.12-3.82-0.07c-0.89-0.13-1.81-0.1-2.71-0.13c-1.16-0.04-2.31-0.08-3.47-0.12c-0.07-0.01-0.16,0-0.23-0.02
			c-0.21-0.04-0.41-0.12-0.62-0.16c-0.19-0.03-0.38-0.05-0.57-0.06c-0.23-0.01-0.46-0.01-0.69,0c-0.16,0.01-0.31,0.08-0.46,0.07
			c-0.75-0.09-1.48-0.22-2.24-0.29c-0.6-0.07-1.19-0.03-1.8-0.1c-0.97-0.1-1.96-0.07-2.94-0.12c-1.19-0.05-2.39-0.08-3.58,0.07
			c-0.87,0.11-1.77,0.02-2.65,0.02c-0.14,0-0.27-0.02-0.41,0.01c-0.67,0.14-1.35,0.22-2.04,0.22c-1.77,0-3.53,0-5.3,0
			c-0.13,0-0.27-0.03-0.4,0.01c-0.59,0.18-1.21,0.16-1.81,0.21c-0.73,0.06-1.48-0.07-2.19,0.04c-0.68,0.09-1.35,0.22-2.04,0.21
			c-0.12-0.01-0.24-0.03-0.34,0.01c-0.75,0.29-1.57,0.3-2.35,0.45c-0.33,0.06-0.68,0.03-0.99,0.12c-0.68,0.22-1.35,0.45-2.01,0.73
			c-1.43,0.63-2.85,1.28-4.26,1.96c-0.66,0.32-1.29,0.71-1.9,1.12c-0.7,0.47-1.38,0.99-2.02,1.53c-0.68,0.58-1.32,1.21-1.96,1.83
			c-0.85,0.84-1.52,1.83-2.07,2.89c-0.47,0.9-0.92,1.8-1.27,2.75c-0.32,0.87-0.65,1.73-0.95,2.6c-0.17,0.51-0.32,1.02-0.46,1.53
			c-0.22,0.84-0.53,1.64-0.62,2.51c-0.06,0.46-0.2,0.91-0.3,1.37c-0.09,0.46-0.12,0.95-0.28,1.39c-0.35,1-0.37,2.04-0.52,3.07
			c-0.1,0.61-0.11,1.25-0.25,1.86c-0.18,0.75-0.25,1.52-0.33,2.28c-0.04,0.39-0.01,0.8-0.12,1.16c-0.25,0.75-0.17,1.53-0.32,2.28
			c-0.08,0.42-0.04,0.86-0.12,1.3c-0.11,0.58-0.09,1.19-0.13,1.79c-0.05,0.64,0.03,1.27-0.09,1.92c-0.14,0.67-0.11,1.39-0.14,2.08
			c-0.02,0.36-0.02,0.73,0.01,1.09c0.02,0.32,0.09,0.63,0.1,0.95c0.06,1.62-0.09,3.24,0.12,4.85c0.06,0.42,0.07,0.86,0.09,1.28
			c0.05,0.91,0.41,1.74,0.52,2.63c0.02,0.23,0.03,0.47,0.08,0.71c0.11,0.47,0.27,0.94,0.34,1.42c0.11,0.8,0.31,1.59,0.56,2.36
			c0.39,1.19,0.75,2.37,1.19,3.54c0.3,0.8,0.65,1.58,1.04,2.33c0.67,1.3,1.39,2.58,2.1,3.87c0.31,0.54,0.73,0.99,1.18,1.41
			c0.1,0.09,0.21,0.17,0.29,0.27c0.59,0.75,1.05,1.62,1.79,2.26c0.58,0.5,1.28,0.8,2.03,0.93c0.52,0.09,1.05,0.12,1.57,0.24
			c0.56,0.14,1.12,0.09,1.68,0.11c0.16,0,0.34-0.06,0.46,0.01c0.38,0.22,0.8,0.16,1.16,0.08c0.53-0.12,1.05-0.05,1.58-0.09
			c0.6-0.05,1.19,0.02,1.8-0.09c0.67-0.14,1.39-0.1,2.08-0.14c0.83-0.04,1.66,0.1,2.49-0.11c0.27-0.07,0.54-0.12,0.81-0.12
			c0.78,0.02,1.49-0.31,2.26-0.42c0.51-0.08,1.02-0.22,1.55-0.28c0.12-0.01,0.23-0.07,0.36-0.11c0.19-0.04,0.39-0.1,0.58-0.11
			c0.55-0.05,1.34-0.65,1.43-1.15c0.15-0.78,0.32-1.56,0.34-2.34c0.03-1-0.06-1.99-0.1-2.99c-0.01-0.1-0.08-0.2-0.12-0.3
			c-0.04-0.18-0.24-0.34-0.02-0.56c0.06-0.06,0-0.24-0.02-0.37c-0.02-0.22-0.07-0.45-0.07-0.68c-0.04-1.5,0.07-3.02-0.12-4.52
			c-0.09-0.67,0.14-1.37-0.12-2.03c0.29-0.27-0.16-0.49-0.09-0.71c0.27-0.92-0.04-1.82-0.06-2.74c-0.01-0.28,0.09-0.56,0.02-0.83
			c-0.12-0.48-0.1-0.98-0.12-1.47c-0.02-0.46,0.07-0.94-0.1-1.4c-0.05-0.15,0.04-0.36,0.07-0.54c0.01-0.07,0-0.13,0-0.2
			c-0.02-0.26-0.09-0.52-0.07-0.77c0.05-0.51,0.17-1.01,0.21-1.52c0.02-0.22-0.13-0.45-0.09-0.65c0.13-0.6,0.22-1.19,0.22-1.81
			c0-0.07,0.02-0.14,0.04-0.21c0.13-0.54,0.26-1.09,0.42-1.62c0.12-0.44,0.27-0.89,0.46-1.3c0.32-0.68,0.64-1.36,1.04-1.99
			c0.32-0.5,0.72-0.95,1.14-1.37C72.62,122.09,73.4,121.3,74.3,120.64z M88.12,74.09c-0.12,0.04-0.25,0.06-0.37,0.07
			c-0.23,0.01-0.5-0.07-0.68,0.02c-0.22,0.11-0.36-0.06-0.55-0.03c-0.22,0.04-0.46,0.01-0.69,0.01c-0.45,0.01-0.84-0.18-1.24-0.35
			c-0.68-0.3-1.39-0.57-2.03-0.93c-0.48-0.27-0.93-0.65-1.07-1.24c-0.03-0.14-0.06-0.29-0.07-0.43c-0.06-0.79-0.05-1.59-0.05-2.38
			c0-0.97,0.09-2.01,0.75-2.84c0.2-0.26,0.53-0.42,0.6-0.78c0-0.02,0.1-0.03,0.15-0.03c0.06,0.01,0.12,0.21,0.17-0.01
			c0.11-0.51,0.59-0.61,0.95-0.8c0.66-0.34,1.31-0.72,2.05-0.88c0.48-0.1,0.95-0.23,1.44-0.27c0.34-0.03,0.68,0.04,0.99,0.26
			c0.07,0.05,0.3-0.18,0.42,0c0.14,0.21,0.36,0.11,0.52,0.19c0.03,0.02,0.08,0,0.11,0c0.8-0.06,1.43,0.27,2.06,0.74
			c0.6,0.44,1.12,0.94,1.51,1.55c0.48,0.75,0.68,1.57,0.46,2.49c-0.13,0.56-0.22,1.13-0.35,1.7c-0.11,0.47-0.33,0.85-0.61,1.19
			c-0.85,1.01-1.94,1.73-3.15,2.25C88.95,73.79,88.54,73.95,88.12,74.09z"/>
	</g>
</g>
</svg>
