<?xml version="1.0" encoding="UTF-8"?><svg id="Capa_1" xmlns="http://www.w3.org/2000/svg" viewBox="0 0 216 240"><defs><style>.cls-1{fill:none;}</style></defs><path class="cls-1" d="M216,240H0V0H216V240ZM31.38,208.62H184.61V31.38H31.38V208.62Z"/><g><path d="M146.44,136.65c.14-.19,.26-.34,.35-.5,.1-.19,.17-.4,.25-.61-.21,0-.43-.05-.64-.02-.53,.08-1.05,.19-1.58,.27-1.67,.26-3.35,.11-5.03,.15-.38,.01-.77-.1-1.12,.14-.06,.04-.18-.03-.27-.04,.02-.08,.01-.19,.06-.25,.23-.25,.46-.43,.87-.32,.27,.07,.59-.1,.89-.11,.86-.02,1.72-.02,2.58,0,1.41,.02,2.79-.17,4.17-.44,.56-.11,.99-.37,1.24-.91,.24-.52,.53-1.01,.79-1.52,.26-.5,.25-.52-.26-.53-.34,0-.69,.01-1.03,0-.1,0-.2-.12-.29-.18,.08-.04,.17-.1,.25-.11,.5-.06,.99-.1,1.49-.15,.29-.03,.82-.76,.72-1.04-.02-.07-.17-.11-.27-.13-.21-.04-.42-.05-.62-.11-.06-.02-.09-.15-.13-.23,.08-.04,.15-.1,.23-.1,.22-.01,.44-.01,.66,0,.25,0,.37-.11,.44-.36,.21-.68,.23-.68-.5-.68-.66,0-1.33,.02-1.99,0-.25,0-.49-.11-.73-.19-.07-.02-.16-.15-.14-.2,.03-.08,.12-.15,.21-.19,.06-.03,.14,0,.22,0,.82-.05,1.63-.1,2.45-.15,.6-.04,1.39-.84,1.35-1.41,0-.13-.17-.34-.27-.35-.35-.01-.71,.08-1.07,.07-.46,0-.93-.06-1.39-.1-.01,0-.04-.08-.02-.1,.09-.11,.18-.31,.29-.32,.39-.04,.79-.03,1.18-.01,.41,.02,.77-.13,1.13-.3,.28-.13,.46-.3,.46-.65,0-.27,.12-.55,.13-.82,.01-.4-.16-.51-.55-.4-.09,.02-.17,.1-.25,.1-1.28,.06-2.57,.12-3.85,.14-.42,0-.84-.09-1.27-.14-.05,0-.09-.08-.13-.13,.06-.05,.11-.15,.18-.15,.19-.02,.39,0,.59,0,1.3,0,2.58-.07,3.86-.29,.31-.05,.64,0,.96-.01,.57-.03,1-.72,.74-1.22-.04-.08-.25-.1-.38-.1-1.43,0-2.85,0-4.28,0-.76,0-1.5-.11-2.24-.29-.23-.06-.49,0-.74-.01-.42-.04-.85-.08-1.26-.16-.1-.02-.16-.21-.24-.32,.1-.04,.2-.11,.3-.1,.78,.04,1.55,.08,2.31,.28,.14,.04,.29,0,.44,0,.91,0,1.82,0,2.73,0,.83,0,1.65-.12,2.46-.29,.19-.04,.4,.03,.59-.02,.17-.04,.36-.12,.48-.25,.09-.1,.13-.33,.07-.43-.07-.11-.31-.22-.42-.18-.83,.3-1.69,.06-2.53,.13-.12,0-.26-.08-.38-.14-.07-.04-.11-.11-.16-.17,.07-.04,.14-.09,.22-.11,.7-.22,1.43-.16,2.15-.15,1.28,.02,1.49-.37,1.46-1.57-.01-.42-.23-.64-.58-.48-.41,.18-.8,.08-1.2,.13-1.89,.21-3.79,.15-5.69,.14-.4,0-.8-.09-1.19-.14-.4-.05-.79,.03-1.2-.12-.35-.13-.78,.01-1.17-.04-.43-.05-.86-.17-1.28-.3-.1-.03-.15-.22-.22-.34,.11-.03,.22-.09,.32-.08,.6,.04,1.19,.09,1.78,.15,.3,.03,.6,.12,.9,.14,.89,.06,1.8,.01,2.66,.17,1.14,.21,2.28,.14,3.41,.1,.99-.04,1.97-.28,2.98-.28,.1,0,.21-.09,.31-.14,.11-.05,.32-.13,.31-.16-.05-.21-.2-.35-.42-.28-.31,.1-.61,.1-.91,0-.11-.04-.23-.06-.31-.13-.06-.05-.07-.16-.1-.24,.06-.02,.13-.06,.19-.07,.33-.03,.69-.12,.97-.11,.64,.03,.69-.46,.73-.76,.08-.78,.04-1.57,0-2.36,0-.11-.25-.3-.39-.3-.47,0-.95,.06-1.41,.14-.5,.08-1,.22-1.5,.28-.94,.12-1.9,.13-2.82,.32-.97,.2-1.94,.18-2.9,.31-1.29,.17-2.57,.05-3.85,.12-.18,0-.35,.11-.53,.13-.07,0-.17-.08-.22-.15-.02-.04,.03-.17,.08-.2,.21-.09,.43-.16,.64-.23,.07-.02,.15,0,.22,0,1.18-.05,2.37-.06,3.55-.16,.78-.07,1.55-.4,2.33-.4,1.13,0,2.16-.48,3.28-.5,.79-.01,1.58-.31,2.37-.49,.04,0,.08-.06,.12-.07,.94-.2,1.06-.37,.91-1.29-.04-.25-.08-.51-.16-.75-.02-.07-.16-.17-.23-.16-.46,.06-.92,.15-1.38,.21-.56,.08-1.12,.15-1.68,.21-.07,0-.21-.1-.22-.17-.01-.08,.06-.21,.14-.26,.14-.08,.31-.17,.45-.15,.8,.12,1.54-.25,2.31-.31,.28-.02,.46-.24,.48-.54,.02-.22,0-.44,0-.66,0-.32-.17-.44-.46-.41-.57,.05-1.16,.03-1.7,.18-.75,.21-1.5,.05-2.24,.1-.1,0-.21-.15-.32-.22,.12-.07,.23-.19,.36-.2,.69-.07,1.39-.08,2.08-.16,.58-.07,1.18-.11,1.71-.31,.51-.19,.23-.73,.24-1.11,0-.24-.08-.56-.5-.5-.26,.04-.55-.05-.81,.02-1.06,.27-2.13,.08-3.19,.14-.32,.02-.64,.03-.96,0-.75-.08-1.49-.19-2.24-.3-.04,0-.1-.1-.1-.15,0-.05,.08-.13,.12-.13,.57,0,1.16-.11,1.69,.02,.87,.21,1.74,.13,2.6,.11,.9-.02,1.79-.19,2.68-.27,.31-.03,.44-.16,.42-.45-.04-.55-.08-1.09-.16-1.63-.02-.11-.22-.26-.35-.27-.28-.01-.56,.05-.84,.09-.07,0-.13,.04-.2,.04-1.28,.05-2.57,.19-3.85,.12-1.03-.06-2.05-.36-3.08-.56-.41-.08-.81-.19-1.21-.3-.07-.02-.13-.09-.2-.14,.06-.05,.13-.15,.18-.15,.38,.03,.74,0,1.13,.11,.62,.19,1.29,.2,1.93,.33,1.52,.31,3.06,.09,4.59,.13,.45,.01,.91-.15,1.35-.3,.12-.04,.18-.29,.26-.44-.26-.1,.04-.62-.45-.58-.34,.03-.69,0-1.03,0-.12,0-.26,.03-.36,0-.14-.06-.25-.18-.37-.27,.14-.1,.26-.25,.41-.3,.18-.05,.39,0,.59-.01,.76-.01,.98-.38,.65-1.08-.22-.45-.27-.49-.75-.33-.5,.16-1,.28-1.53,.23-.1,0-.22,.03-.29,0-.19-.11-.51-.28-.5-.38,.04-.26,.34-.18,.55-.2,.45-.04,.9-.06,1.34-.16,.26-.06,.5-.23,.72-.39,.07-.05,.09-.25,.05-.34-.06-.12-.03-.35-.3-.3-.44,.08-.88,0-1.35,.12-.66,.18-1.38,.16-2.07,.16-.28,0-.56-.17-.83-.28-.04-.02-.08-.13-.07-.18,0-.04,.09-.1,.15-.1,.2-.01,.39-.01,.59,0,.96,.03,1.89-.13,2.83-.3,.11-.02,.21-.09,.32-.12,.34-.09,.46-.21,.25-.59-.22-.39-.28-.87-.47-1.28-.11-.23-.32-.31-.6-.13-.4,.26-.83,.43-1.33,.35-.11-.02-.22-.07-.32-.13-.05-.03-.11-.14-.09-.17,.04-.06,.12-.12,.19-.14,.27-.06,.55-.1,.82-.15,.75-.14,.97-.48,.59-1.1-.52-.85-1.1-1.68-1.72-2.46-.56-.7-1.21-1.32-1.81-1.98-.57-.61-1.24-1.09-1.94-1.56-.36-.24-.65-.53-.75-1.07-.17-.96-.58-1.87-.83-2.82-.16-.61-.23-1.24-.32-1.86-.15-1.01-.31-2.01-.55-3.01-.33-1.41-.78-2.77-1.2-4.15-.41-1.34-.62-2.75-.91-4.13-.4-1.9-.76-3.81-1.19-5.7-.18-.77-.43-1.54-.74-2.27-.27-.64-.07-1.11,.31-1.61,.32-.42,.6-.88,.89-1.33,.06-.1,.06-.23,.08-.35-.1,.05-.24,.07-.3,.14-.43,.53-.84,1.08-1.26,1.61-.05,.06-.12,.1-.19,.15-.04-.08-.09-.15-.1-.23-.08-.66-.27-1.24-.88-1.62-.1-.07-.09-.3-.16-.44-.07-.13-.19-.24-.28-.36-.1,.11-.3,.24-.28,.34,.07,.48-.18,.69-.58,.84-.29,.11-.4,.31-.49,.62-.26,.84-.58,1.68-.96,2.48-.34,.72-.78,1.4-1.19,2.09-.57,.97-1.15,1.93-1.72,2.9-.49,.83-.98,1.66-1.46,2.49-.51,.89-1.03,1.78-1.51,2.69-.8,1.51-1.58,3.03-2.35,4.56-.29,.59-.48,1.23-.8,1.81-.48,.89-1.03,1.74-1.56,2.6-.11,.18-.3,.32-.45,.47-.12,.12-.22,.23-.42,.06-.12-.1-.37-.06-.56-.06-.91,0-1.83,.09-2.73-.02-1.95-.25-3.9-.1-5.84-.1-.76,0-1.55,.12-2.32,.24-.69,.11-1.4,.16-2.09,.33-1.47,.35-2.94,.73-4.42,1.09-.78,.19-1.58,.35-2.36,.53-1.59,.36-3.2,.65-4.77,1.14-.18,.06-.38,.05-.57,.04-.84-.07-1.63,.26-2.45,.34-.34,.03-.66,.19-1,.25-.46,.08-.74-.12-1.01-.55-.66-1.05-1.28-2.12-2.13-3.03-.56-.6-1.1-1.23-1.67-1.81-1.26-1.28-2.54-2.53-3.79-3.81-.92-.93-1.78-1.92-2.71-2.84-1.48-1.48-3.09-2.8-4.9-3.85-.52-.3-1.14-.44-1.73-.62-.98-.3-1.97-.59-2.97-.84-.19-.05-.51,0-.63,.14-.13,.16-.35,.39-.16,.69,.17,.26,.2,.56,.09,.87-.26,.72,.05,1.44,0,2.16-.04,.76-.08,1.53,0,2.28,.13,1.16,.21,2.33,.31,3.49,.06,.69,.05,1.39,.13,2.08,.1,.95,.29,1.89,.43,2.84,.07,.49,.1,.99,.15,1.49,.1,.98,.19,1.96,.43,2.92,.11,.43,.1,.89,.16,1.34,.04,.27-.04,.42-.3,.54-.19,.09-.29,.25,.07,.36,.42,.13,.55,.49,.54,.93,0,.41-.24,.57-.57,.72-1.89,.83-3.36,2.21-4.73,3.71-.45,.49-.77,1.1-1.1,1.68-.33,.57-.61,1.17-.89,1.77-.19,.4-.09,.6,.33,.61,.76,.02,1.52,.02,2.29,0,.22,0,.43-.13,.66-.19,.74-.18,1.47-.37,2.21-.53,.13-.03,.29,0,.42,.04,.08,.03,.18,.15,.17,.21-.01,.07-.12,.15-.21,.19-.97,.52-1.98,.95-3.05,1.16-.65,.13-1.34,.01-1.99-.16-.24-.07-.47-.19-.71-.25-.31-.09-.72,.21-.82,.57-.18,.66-.38,1.32-.56,1.98-.1,.35,0,.59,.37,.68,.31,.08,.65,.1,.97,.16,.2,.04,.41,.08,.6,.15,.09,.04,.16,.15,.23,.23-.09,.02-.18,.06-.27,.05-.47-.04-.95-.05-1.41-.16-.64-.16-.69-.18-.8,.39-.08,.42-.09,.85-.16,1.27-.08,.51-.19,1.01-.27,1.51-.03,.19-.01,.39-.03,.58-.05,.67-.06,1.34-.16,2-.16,1.06-.28,2.12-.29,3.2,0,.48,0,.46,.49,.52,.82,.1,1.62,.35,2.46,.3,.09,0,.2,.17,.29,.27-.11,.05-.21,.15-.32,.16-.83,.02-1.65-.09-2.46-.28-.39-.1-.62,.07-.61,.47,.05,1.22-.35,1.15,1.13,1.63,.69,.22,1.39,.39,2.12,.41,1.09,.03,2.17,.07,3.26,.16,.38,.03,.75,.2,1.12,.32,.07,.02,.12,.13,.18,.2-.08,.03-.17,.08-.25,.1-.16,.04-.37,.15-.47,.09-.37-.22-.75-.09-1.13-.13-.82-.1-1.64-.26-2.46-.28-.72-.02-1.4-.2-2.09-.32-.38-.06-.75-.2-1.13-.28-.14-.03-.26-.03-.28,.21-.04,.57,.16,1.16-.14,1.71,.28,.47,.11,.99,.14,1.49,.01,.23,.11,.33,.3,.43,1.08,.57,2.21,.98,3.42,1.18,.61,.1,1.21,.28,1.81,.43,.05,.01,.1,0,.14,0,1.41,.05,2.81,.15,4.22,.13,.62,0,1.22-.36,1.87-.27,.09,.01,.19,0,.29,.03,.03,0,.05,.08,.05,.12,0,.04-.02,.11-.05,.12-.17,.07-.34,.15-.52,.17-.49,.06-1,.06-1.48,.16-.72,.16-1.43,.14-2.15,.13-.71-.01-1.4-.17-2.09-.26-.65-.08-1.29-.2-1.94-.32-1.07-.19-2.08-.53-3.08-.94-.15-.06-.27-.21-.41-.24-.18-.04-.38-.07-.37,.26,.03,.79-.02,1.57,.02,2.36,.02,.37,.12,.66,.62,.78,1.18,.29,2.35,.64,3.54,.88,.82,.16,1.63,.26,2.46,.29,.68,.02,1.35,.18,2.02,.28,.05,0,.11,0,.14,.02,.12,.11,.23,.24,.34,.36-.14,.07-.29,.2-.43,.2-.5-.02-1-.07-1.49-.14-.53-.08-1.05-.22-1.58-.28-1.2-.14-2.37-.43-3.53-.74-.53-.14-1.06-.31-1.59-.42-.1-.02-.36,.22-.35,.32,.04,.6-.17,1.21,.11,1.79,.05,.1,.01,.24,.01,.36,0,1.3,.27,2.56,.6,3.81,.04,.17,.19,.35,.34,.44,1.42,.84,2.89,1.6,4.51,1.93,.98,.2,2.02,.13,3.03,.18,.24,.01,.62-.07,.62,.2,0,.34-.39,.23-.64,.24-.44,0-.89-.02-1.33,0-1.25,.07-2.39-.35-3.52-.76-.64-.24-1.24-.57-1.86-.86-.1-.05-.2-.12-.31-.14-.32-.07-.33,.02-.27,.38,.11,.63,.49,1.13,.68,1.71,.38,1.16,1.33,1.39,2.34,1.6,.38,.08,.74,.22,1.1,.36,.06,.02,.32,.13-.02,.24-.45,.15-.84-.09-1.27-.07-.03,0-.07-.09-.1-.09-.26,0-.53,.03-.79,.05,.11,.22,.19,.46,.33,.66,.4,.53,.79,1.07,1.25,1.54,1.18,1.22,2.37,2.43,3.6,3.6,1.28,1.21,2.67,2.31,4.23,3.13,1.95,1.03,3.93,2.02,5.95,2.91,1.89,.83,3.82,1.59,5.82,2.16,1.23,.35,2.43,.8,3.66,1.13,.83,.22,1.69,.32,2.54,.45,1.12,.18,2.22,.42,3.36,.45,.37,.01,.75,.09,1.12,.15,.05,0,.1,.08,.13,.13,.01,.03,0,.11-.04,.12-.97,.61-1.57,1.55-2.19,2.47-.82,1.23-1.57,2.49-2.28,3.78-.1,.18-.2,.39-.19,.58,.02,.41-.2,.72-.39,1.02-.91,1.46-1.64,2.99-2.3,4.58-.6,1.46-.99,2.99-1.43,4.49-.29,1-.41,2.05-.62,3.07-.13,.63-.31,1.25-.43,1.88-.04,.2-.05,.33-.28,.28-.25-.05-.51-.06-.75-.15-1.02-.38-2.02-.85-3.06-1.16-1.24-.36-2.36-.96-3.51-1.51-1.39-.66-2.74-1.41-3.98-2.33-.26-.19-.57-.32-.81-.53-.81-.73-1.66-1.44-2.38-2.25-.74-.84-1.34-1.8-2-2.7-.9-1.23-1.59-2.58-2.27-3.93-.76-1.53-1.46-3.08-2.22-4.61-.76-1.53-1.52-3.07-2.37-4.55-.64-1.1-1.41-2.13-2.16-3.16-.68-.93-1.37-1.87-2.15-2.72-.73-.81-1.57-1.52-2.37-2.26-.39-.36-.81-.67-1.19-1.04-.95-.92-2.07-1.63-3.16-2.35-.71-.46-1.45-.87-2.21-1.24-1.64-.79-3.33-1.48-5.13-1.88-.66-.15-1.3-.43-1.95-.63-.89-.28-1.78-.57-2.68-.83-.43-.12-.85,.1-.97,.46-.04,.12-.05,.28,0,.39,.71,1.73,1.61,3.35,2.76,4.84,.6,.78,1.16,1.59,1.76,2.37,.49,.63,.88,1.36,1.62,1.75,.04,.02,.07,.07,.11,.1,2.29,2.24,4.62,4.45,6.86,6.75,.88,.9,1.64,1.93,2.35,2.99,1,1.5,1.97,3.01,2.75,4.62,.77,1.57,1.55,3.14,2.1,4.81,.26,.77,.66,1.49,.99,2.24,.41,.94,.76,1.9,1.17,2.83,.68,1.53,1.4,3.03,2.38,4.39,.69,.96,1.4,1.9,2.16,2.81,1.05,1.26,2.4,2.06,3.75,2.89,1.03,.63,2.06,1.28,3.17,1.79,1.2,.55,2.41,1.08,3.68,1.43,.65,.18,1.34,.21,2.01,.33,.94,.16,1.88,.23,2.83,.31,1.16,.11,2.32,.29,3.49,.27,.35,0,.46,.14,.47,.48,.04,1.26,.04,2.52,.16,3.77,.07,.71,.02,1.46,.37,2.13,.18,.34,.03,.72,.16,1.11,.34,.97,.49,2.01,.78,3,.19,.65,.53,1.25,.77,1.89,.16,.43,.25,.88,.4,1.31,.07,.19,.18,.37,.28,.55,.07,.13,.16,.24,.24,.37-.16-.01-.34,.01-.49-.04-.89-.28-1.79-.55-2.66-.89-1.97-.77-3.97-1.44-5.9-2.32-1.72-.79-3.44-1.57-5.1-2.47-1.96-1.06-3.91-2.14-5.75-3.39-1.34-.91-2.71-1.79-4.03-2.72-.77-.54-1.49-1.17-2.22-1.77-1.09-.88-2.19-1.75-3.24-2.67-.92-.8-1.78-1.65-2.66-2.5-.95-.92-1.89-1.86-2.81-2.81-1.35-1.39-2.64-2.84-3.82-4.39-.77-1.02-1.61-1.99-2.39-3-.47-.61-.88-1.26-1.31-1.89-.85-1.24-1.72-2.48-2.55-3.74-.48-.73-.92-1.48-1.33-2.25-.72-1.32-1.44-2.65-2.11-4-.83-1.67-1.63-3.36-2.4-5.06-.37-.81-.64-1.65-.96-2.48-.2-.53-.42-1.06-.61-1.59-.43-1.2-.89-2.39-1.24-3.62-.29-1.01-.58-2.03-.84-3.05-.19-.73-.36-1.47-.57-2.19-.17-.6-.39-1.18-.44-1.82-.05-.55-.25-1.08-.35-1.62-.14-.73-.25-1.47-.37-2.21-.04-.25-.12-.5-.14-.75-.12-1.12-.35-2.23-.48-3.35-.11-1.02-.2-2.03-.3-3.05-.06-.62-.04-1.24-.11-1.86-.31-2.61-.1-5.22-.13-7.83-.01-1.14,.06-2.29,.27-3.42,.03-.17,0-.34,0-.52-.01-.91,.13-1.79,.29-2.68,.1-.56,.11-1.14,.16-1.71,.09-1.09,.26-2.17,.57-3.23,.17-.58,.21-1.19,.31-1.79,.1-.57,.16-1.16,.3-1.72,.32-1.27,.73-2.51,1.01-3.78,.28-1.26,.71-2.46,1.11-3.68,.53-1.62,1.11-3.23,1.72-4.82,.33-.87,.77-1.7,1.17-2.54,.54-1.13,1.04-2.28,1.63-3.38,.66-1.23,1.3-2.47,2.01-3.67,.99-1.7,2.07-3.33,3.16-4.95,.75-1.13,1.63-2.18,2.45-3.27,.66-.86,1.32-1.72,1.98-2.57,.04-.06,.1-.1,.16-.16,.96-1.01,1.92-2.01,2.87-3.02,.34-.37,.64-.78,1-1.13,.5-.49,1.03-.94,1.55-1.41,1.34-1.22,2.65-2.49,4.13-3.56,1-.72,1.91-1.55,2.9-2.28,1.07-.78,2.17-1.52,3.29-2.21,1.32-.82,2.67-1.62,4.04-2.36,1.62-.88,3.26-1.73,4.93-2.52,1.19-.56,2.45-.98,3.67-1.48,.63-.26,1.23-.59,1.87-.82,.94-.34,1.89-.68,2.86-.93,.89-.23,1.76-.51,2.64-.75,.78-.21,1.55-.41,2.34-.59,1.17-.26,2.35-.53,3.53-.73,1.18-.2,2.39-.29,3.58-.46,.93-.13,1.84-.31,2.77-.43,.66-.09,1.34-.14,2-.15,2.11-.02,4.23-.02,6.34,0,1.38,.02,2.77,.05,4.14,.16,1,.08,1.99,.34,2.99,.41,.76,.05,1.49,.19,2.24,.31,2.15,.36,4.28,.75,6.39,1.3,2.24,.59,4.45,1.23,6.64,1.96,1.23,.41,2.41,.96,3.62,1.41,1.96,.74,3.87,1.61,5.72,2.57,1.91,.99,3.83,1.96,5.63,3.17,1.32,.89,2.71,1.68,4.01,2.59,1.12,.78,2.17,1.65,3.26,2.48,.8,.61,1.62,1.2,2.41,1.83,.51,.41,.99,.85,1.45,1.3,1.83,1.77,3.67,3.52,5.46,5.33,.93,.94,1.82,1.93,2.66,2.95,1.05,1.27,2,2.62,3.04,3.9,1.34,1.63,2.48,3.39,3.64,5.14,.71,1.07,1.35,2.19,1.99,3.31,.76,1.33,1.54,2.65,2.24,4.02,.58,1.13,1.05,2.32,1.58,3.48,.38,.83,.79,1.64,1.14,2.48,.42,1.01,.8,2.03,1.19,3.05,.54,1.38,.9,2.82,1.44,4.2,.44,1.12,.62,2.35,.92,3.53,.21,.85,.42,1.69,.63,2.54,.14,.61,.27,1.21,.41,1.82,.2,.9,.42,1.8,.58,2.71,.14,.79,.14,1.61,.33,2.38,.16,.65-.02,1.33,.27,1.95,.02,.04,0,.1,0,.15,.05,.84,.03,1.69,.17,2.52,.11,.62,0,1.27,.26,1.88,.07,.17,0,.39,.01,.59,.03,.72,.1,1.45,.1,2.17,0,.71-.08,1.42-.1,2.14-.02,.71,0,1.43,0,2.14s.04,1.48-.01,2.21c-.06,.82-.06,1.65-.28,2.46-.04,.16,0,.34,0,.51,0,.66-.06,1.31-.28,1.95-.07,.2,0,.44-.01,.66-.03,.92-.17,1.82-.41,2.7-.11,.43-.12,.89-.18,1.33-.11,.95-.32,1.87-.56,2.79-.32,1.27-.64,2.54-.91,3.83-.33,1.6-.89,3.12-1.4,4.66-.54,1.62-1.08,3.24-1.73,4.82-.62,1.51-1.36,2.98-2.07,4.45-.5,1.03-1.02,2.04-1.57,3.04-.51,.95-1.07,1.87-1.61,2.8-.35,.59-.7,1.19-1.07,1.77-.43,.66-.87,1.32-1.33,1.96-.68,.95-1.36,1.9-2.06,2.83-.67,.88-1.37,1.75-2.06,2.62-.25,.32-.52,.62-.78,.93-.24,.29-.46,.6-.72,.87-1.56,1.62-3.09,3.27-4.7,4.83-1.15,1.12-2.37,2.18-3.62,3.18-1.24,.99-2.61,1.83-3.83,2.84-1.46,1.21-3.13,2.09-4.68,3.15-.94,.64-1.98,1.14-2.99,1.68-.7,.38-1.41,.75-2.13,1.09-1.15,.54-2.33,1.02-3.47,1.59-.32,.16-.32-.01-.37-.17-.04-.14,0-.29,0-.44,0-1.06,.02-2.12,0-3.17-.02-.79-.07-1.58-.15-2.37-.07-.77-.17-1.55-.3-2.31-.12-.73-.38-1.45-.41-2.18-.04-1-.35-1.94-.48-2.91-.11-.79-.37-1.56-.58-2.33-.28-1.04-.57-2.07-.87-3.11-.2-.7-.45-1.39-.63-2.1-.51-1.99-1.3-3.9-1.75-5.92-.26-1.15-.75-2.25-1.07-3.39-.5-1.83-1.21-3.58-1.89-5.34-.58-1.48-1.2-3-2.25-4.22-.84-.97-1.81-1.79-2.96-2.44-1.18-.66-2.45-1-3.69-1.42-.42-.14-.89-.11-1.34-.16-.07,0-.13-.04-.2-.06,.06-.07,.12-.18,.19-.2,.16-.04,.34-.04,.5-.03,.83,.03,1.62-.24,2.42-.39,.62-.12,1.23-.23,1.85-.34,.93-.17,1.86-.34,2.78-.58,.99-.26,2.01-.37,3-.61,.84-.21,1.66-.5,2.49-.76,.69-.22,1.4-.42,2.06-.71,.83-.37,1.65-.79,2.42-1.28,.92-.59,1.79-1.27,2.67-1.92,.09-.07,.14-.2,.21-.31-.12-.06-.24-.13-.37-.16-.32-.08-.68,.15-.97-.15-.07-.07-.15-.13-.22-.19,.08-.04,.15-.1,.23-.1,.59-.06,1.19-.09,1.78-.16,.22-.03,.48-.09,.64-.23,.49-.44,.95-.92,1.41-1.4,.13-.13,.12-.27-.11-.28-.15,0-.29,0-.44,0-.3,0-.6,.04-.88-.01-.2-.03-.54-.2-.54-.29,.01-.3,.3-.29,.55-.29,.69,0,1.38,0,2.07,0,.09,0,.19-.06,.28-.09-.1-.07-.18-.16-.29-.19-.22-.07-.45-.1-.66-.18-.08-.03-.13-.13-.2-.2,.09-.07,.18-.16,.28-.21,.08-.03,.2-.02,.29,0,.86,.13,1.06,.06,1.54-.58,.45-.59,.89-1.19,1.38-1.82Z"/><path d="M118.14,142.58c-.27,.05-.47,.13-.68,.14-.81,.05-1.63,.03-2.45,.12-1.42,.16-2.86,.13-4.29,.18-1.23,.05-2.47,.11-3.7,.14-.88,.03-1.74-.14-2.61-.28-.54-.09-1.09-.07-1.63-.14-1.91-.24-3.79-.54-5.61-1.25-1.57-.61-3.15-1.16-4.68-1.88-.94-.45-1.84-.93-2.69-1.52-.3-.21-.65-.33-.96-.53-.66-.43-1.04-1.1-1.39-1.77-.37-.7-.8-1.39-.95-2.19-.03-.16-.09-.32-.1-.47-.06-1.67,.5-3.14,1.46-4.48,.61-.86,1.33-1.57,2.31-2.04,.96-.45,1.91-.47,2.94-.29,.83,.14,1.61,.4,2.38,.67,.96,.34,1.89,.8,2.78,1.3,.59,.33,1.21,.46,1.84,.55,1.08,.16,2.18,.19,3.27,.32,1.09,.13,2.18,.19,3.27,.32,.8,.1,1.59,.02,2.37,.12,1.58,.22,3.15,.13,4.73,.13,.99,0,1.98-.03,2.96-.15,1.33-.16,2.63-.47,3.89-.92,1.1-.4,2.23-.43,3.38-.38,.31,.02,.61,.19,.91,.28,.65,.2,1.3,.44,1.97,.58,1.04,.22,1.74,.92,2.41,1.66,.39,.43,.64,.97,1.01,1.42,.32,.38,.39,.79,.39,1.24,0,.92-.13,1.81-.41,2.7-.27,.86-.81,1.47-1.45,1.97-1.02,.8-2.1,1.53-3.22,2.19-.9,.53-1.86,.95-2.88,1.23-.68,.19-1.36,.4-2.04,.59-.38,.11-.75,.21-1.14,.28-.44,.08-.89,.11-1.41,.16m-13.94-12.1c-.17,0-.34,0-.51,0-.68,0-.77,.1-1.04,.81-.28,.74-.61,1.46-.87,2.21-.2,.57-.45,1.16-.3,1.78,.08,.35,.21,.73,.43,.99,.2,.23,.54,.11,.84-.02,.37-.16,.79-.28,1.2-.3,.99-.05,1.99-.05,2.95,.32,.73,.29,1.06,.05,1.06-.7,0-1.3,.02-2.61-.13-3.91-.08-.71-.32-1.03-1.04-1.04-.66,0-1.32,0-1.99,0-.15,0-.3-.09-.6-.14m5.98,3.32c-.05,.72-.09,1.43-.15,2.15-.02,.28,.06,.55-.12,.84-.09,.14,.03,.47,.14,.65,.07,.11,.32,.11,.5,.12,.24,.02,.51-.06,.73,.02,.85,.28,1.73,.3,2.61,.28,.27,0,.41-.28,.38-.56-.05-.75-.16-1.5-.08-2.24,.1-.99,.27-1.97,.27-2.97,0-.62-.57-1.19-1.22-1.15-.77,.05-1.54,.16-2.3,.3-.18,.03-.4,.29-.44,.48-.14,.64-.21,1.29-.31,2.08m6.05-1.33c-.1,.79-.2,1.58-.31,2.37-.03,.2-.09,.4-.13,.61-.07,.31,.1,.37,.36,.34,.96-.11,1.91,.04,2.8,.34,.45,.15,.72,.03,1.01-.18,.35-.26,.53-.69,.37-1.07-.14-.34-.09-.65-.12-.98-.02-.19,0-.39-.04-.57-.16-.68-.19-1.35,.02-2.03,.22-.73-.4-1.47-1.07-1.25-.62,.21-1.23,.26-1.87,.29-.33,.02-.66,.17-.98,.29-.08,.03-.19,.14-.19,.21,0,.5-.1,1.01,.14,1.63Z"/><path d="M129.95,73.98c.39-.94,.8-1.81,1.18-2.68,.3-.69,.56-1.39,.86-2.08,.59-1.35,1.17-2.71,1.81-4.04,.33-.7,.77-1.35,1.17-2.02,.03-.05,.12-.09,.17-.08,.05,0,.1,.08,.12,.14,.25,.93,.5,1.86,.74,2.79,.27,1.07,.52,2.15,.78,3.22,.19,.81,.37,1.62,.55,2.43,.2,.9,.41,1.8,.59,2.71,.13,.67,.19,1.34,.3,2.02,.19,1.17,.4,2.34,.59,3.52,.11,.67,.15,1.36,.31,2.01,.24,1.03,.22,2.12,.72,3.09,.04,.08-.04,.22-.06,.34-.08-.03-.17-.06-.25-.09-1.17-.48-2.35-.88-3.61-1.09-.84-.14-1.66-.39-2.49-.57-.39-.08-.79-.11-1.19-.16-1.17-.15-2.34-.3-3.51-.44-.4-.05-.8-.1-1.19-.15-.33-.04-.39-.17-.25-.5,.52-1.26,1.05-2.52,1.56-3.78,.15-.36,.27-.73,.36-1.1,.02-.1-.09-.28-.2-.34-.19-.11-.2,.07-.25,.21-.28,.75-.56,1.49-.87,2.22-.38,.9-.78,1.79-1.18,2.68-.06,.13-.2,.29-.32,.31-.26,.04-.53,0-.8-.02-.02,0-.07-.14-.05-.19,.16-.32,.32-.66,.53-.95,.18-.25,.5-.42,.63-.69,.57-1.14,1.08-2.31,1.64-3.45,.52-1.06,1.08-2.11,1.62-3.24m7.82,7.45c.05,.49,.08,.99,.16,1.48,.04,.26,.21,.5,.28,.76,.11,.39,.32,.21,.47,.08,.09-.07,.14-.26,.12-.38-.1-.71-.19-1.43-.34-2.14-.15-.69-.33-1.38-.54-2.05-.17-.54-.42-1.06-.57-1.6-.06-.2-.14-.26-.28-.2-.09,.04-.16,.19-.17,.3-.06,.45,.13,.85,.27,1.28,.25,.76,.41,1.55,.61,2.47Z"/><path d="M78.64,73.79c.1,.05,.19,.05,.23,.09,1.04,.99,2.11,1.95,3.11,2.98,.93,.95,1.77,1.97,2.67,2.94,.51,.56,1.08,1.06,1.6,1.61,1.05,1.13,2.1,2.27,3.12,3.43,.25,.29,.39,.67,.58,1.01,.02,.04-.01,.1,0,.14,.27,.52,.26,.47-.31,.52-.77,.07-1.54,.2-2.3,.31-.21,.03-.41,.11-.61,.11-.91,0-1.8,.09-2.68,.29-.46,.1-.95,.08-1.41,.16-.91,.16-1.82,.35-2.73,.52-.36,.07-.73,.12-1.09,.21-.43,.1-1.05-.12-1.12,.65-.02,.19-1.14,.35-1.27,.18-.06-.08-.07-.25-.02-.34,.27-.5,.16-.89-.25-1.28-.19-.17-.34-.48-.34-.73-.03-.87-.29-1.7-.45-2.55-.14-.69-.24-1.39-.29-2.09-.05-.73,0-1.48-.02-2.21-.02-.5-.1-.99-.16-1.48-.02-.18-.14-.36-.12-.54,.12-1.27-.38-2.39-.91-3.46-.51-1.02-1.21-1.96-1.77-2.96-.24-.43-.65-.79-.59-1.38,.03-.32,.18-.32,.37-.27,.86,.23,1.73,.43,2.48,.97,.96,.69,1.97,1.3,2.93,1.98,.47,.33,.88,.73,1.35,1.14m5.27,7.64c.17,.12,.33,.27,.52,.36,.09,.04,.23-.02,.34-.04-.03-.1-.05-.21-.11-.3-.11-.18-.21-.37-.37-.51-.98-.89-1.95-1.79-2.95-2.66-1.13-.98-2.3-1.92-3.32-3.02-.22-.24-.49-.45-.78-.62-.14-.08-.36-.03-.54-.03,.03,.15,.01,.34,.1,.44,.21,.26,.47,.49,.71,.73,.76,.72,1.52,1.43,2.28,2.14,.42,.39,.85,.77,1.29,1.15,.91,.77,1.82,1.53,2.81,2.37m2.29,1.4c-.07-.07-.13-.18-.21-.2-.17-.05-.42-.14-.53-.06-.17,.12-.09,.34,.08,.49,.2,.18,.38,.37,.57,.56,.5,.5,1.02,1,1.51,1.52,.15,.16,.3,.24,.51,.2,.07-.01,.19-.04,.19-.05,0-.08,0-.19-.06-.25-.65-.71-1.32-1.42-2.05-2.21m-10.4-9.37c-.46-.46-.9-.95-1.4-1.37-.12-.1-.49-.04-.65,.08-.17,.14,.06,.49,.34,.63,.28,.14,.55,.33,.82,.51,.27,.17,.52,.39,.82,.5,.24,.09,.29-.07,.07-.35Z"/><path d="M88.82,97.18c.68,.2,1.34,.41,1.88,.85,.37,.3,.75,.58,1.1,.89,.47,.41,.94,.83,1.4,1.25,.52,.48,.57,.49,1.02,.01,.46-.49,.91-.99,1.34-1.51,.73-.87,1.44-1.74,2.57-2.12,.45-.15,1.01-.04,1.22,.33,.22,.38,0,1.08-.4,1.29-.28,.15-.64,.19-.87,.38-.48,.41-.92,.88-1.35,1.34-.43,.45-.82,.95-1.26,1.39-.27,.27-.29,.47,0,.72,1.01,.84,2.01,1.68,3.01,2.52,.49,.41,1.01,.79,1.47,1.24,.41,.4,.44,1.12,.13,1.55-.34,.46-1.18,.53-1.71,.09-1.17-.97-2.48-1.77-3.52-2.91-.14-.15-.34-.24-.51-.37-.71-.58-.75-.61-1.33,.09-.86,1.03-1.64,2.12-2.47,3.17-.52,.65-1.05,1.29-1.6,1.91-.3,.35-.62,.69-.98,.98-.44,.35-.89,.21-1.04-.32-.11-.37,.22-.62,.38-.9,.14-.27,.36-.5,.57-.72,.87-.93,1.53-2.02,2.3-3.03,.63-.83,1.3-1.63,1.98-2.42,.26-.3,.25-.5-.04-.72-1.18-.88-2.09-2.08-3.39-2.84-.29-.17-.69-.41-.66-.89,.05-1.02-.22-.71,.78-1.25Z"/><path d="M123.12,100.5c.78-.78,.77-.85-.08-1.48-.14-.1-.25-.24-.37-.36-.86-.87-1.75-1.71-2.77-2.4-.36-.24-.38-.49-.15-.95,.21-.42,.39-.46,.82-.38,.65,.12,1.14,.5,1.62,.9,.8,.69,1.59,1.39,2.39,2.08,.23,.19,.49,.21,.7-.02,.63-.69,1.22-1.42,1.86-2.1,.59-.63,1.1-1.35,1.91-1.74,.53-.26,1.08-.16,1.33,.22,.27,.4,.19,.98-.18,1.35-.8,.8-1.61,1.59-2.4,2.4-.33,.34-.64,.72-.94,1.08-.39,.47-.4,.58,.09,1.02,.51,.46,1.04,.91,1.61,1.28,.63,.42,1.24,.85,1.79,1.38,.39,.39,.81,.75,1.24,1.09,.26,.2,.36,.5,.23,.7-.15,.24-.33,.53-.72,.54-.63,.02-1.17-.26-1.57-.66-.75-.74-1.57-1.34-2.47-1.88-.53-.32-.95-.81-1.41-1.23-.37-.33-.65-.3-.97,.07-.53,.64-1.08,1.28-1.61,1.91-.78,.93-1.55,1.87-2.36,2.78-.24,.27-.42,.67-.92,.63-.32-.03-.46-.12-.5-.46-.05-.46,.16-.84,.39-1.17,.84-1.18,1.73-2.34,2.6-3.5,.27-.36,.52-.72,.82-1.11Z"/><path d="M72.74,79.25c.11,.62,.18,1.21,.26,1.79,.04,.28,.11,.55,.14,.82,.15,1.24,.21,2.5,.47,3.72,.23,1.07,0,2.05-.18,3.07-.02,.09-.04,.2-.1,.25-.14,.11-.31,.19-.47,.28-.06-.13-.14-.25-.18-.39-.1-.35-.22-.71-.27-1.07-.08-.54-.07-1.1-.16-1.63-.18-.98-.07-1.98-.15-2.96-.08-1-.28-1.99-.43-2.99-.15-1-.24-2-.46-2.98-.13-.55-.1-1.09-.12-1.64-.05-.96-.08-1.93-.16-2.89-.05-.6-.19-1.2-.28-1.8-.01-.07,.05-.15,.08-.23,.07,.07,.18,.13,.2,.21,.21,.73,.41,1.45,.59,2.19,.21,.85,.41,1.7,.61,2.55,.09,.38,.2,.76,.26,1.15,.12,.84,.21,1.68,.35,2.56m-.63-.92c-.05-.59-.07-1.19-.16-1.78-.05-.36-.18-.71-.29-1.06-.02-.07-.1-.13-.15-.19-.05,.06-.13,.13-.14,.2-.02,.24-.04,.5,0,.74,.13,.78,.31,1.55,.43,2.32,.13,.81,.15,1.65,.31,2.45,.2,.99,.31,1.97,.28,2.98,0,.1-.02,.2,0,.29,.19,.86,.28,1.73,.3,2.61,0,.47,.08,.94,.15,1.41,.01,.1,.14,.19,.21,.28,.03-.11,.08-.22,.07-.33-.04-.96-.09-1.93-.15-2.89-.03-.5-.03-1.01-.17-1.48-.11-.36-.1-.7-.13-1.05-.04-.62,.1-1.25-.14-1.86-.11-.28-.11-.59-.16-.89-.08-.56-.15-1.12-.3-1.75Z"/><path d="M57.76,154.72c-.44-.49-.82-.95-1.24-1.38-.23-.24-.52-.41-.76-.64-.13-.12-.24-.29-.31-.46-.04-.09,.02-.23,.04-.34,.1,.04,.23,.04,.3,.11,.56,.5,1.19,.94,1.65,1.52,.91,1.15,1.75,2.36,2.56,3.58,.97,1.47,1.76,3.02,2.4,4.68,.63,1.63,1.25,3.27,2.07,4.82,.38,.72,.62,1.52,1.01,2.23,.45,.81,.96,1.58,1.51,2.32,.24,.33,.66,.53,.99,.79,.09,.07,.17,.17,.25,.26-.13-.01-.28,0-.4-.05-.56-.24-1.05-.61-1.38-1.1-.56-.81-1.06-1.67-1.51-2.54-.37-.7-.6-1.47-.96-2.18-.73-1.47-1.31-2.99-1.95-4.5-.65-1.53-1.28-3.1-2.4-4.39-.48-.56-.83-1.22-1.25-1.84-.19-.29-.39-.57-.63-.9Z"/><path d="M92.62,190.24c.05,.35,.07,.63,.15,.9,.37,1.2,.77,2.39,1.15,3.58,.04,.11,.04,.24,.02,.36-.02,.12-.1,.22-.15,.33-.1-.09-.24-.17-.28-.29-.21-.65-.42-1.3-.59-1.97-.27-1-.52-2-.76-3.01-.13-.54-.25-1.1-.27-1.65-.04-1.4-.12-2.81,.02-4.2,.17-1.68,.04-3.36,.13-5.03,.06-1.04,.1-2.1,.31-3.12,.24-1.11,.5-2.23,1.16-3.2,.05-.08,.11-.16,.19-.21,.05-.03,.13-.02,.2-.03-.01,.05-.02,.11-.04,.16-.52,1.02-.88,2.1-1.14,3.21-.11,.45-.21,.92-.23,1.38-.07,1.87-.13,3.74-.15,5.62-.02,1.94,0,3.88,0,5.83,0,.45,.06,.88,.3,1.35Z"/><path d="M126.15,77.41c-.45,.95-.94,1.81-1.65,2.55-.46,.48-.84,1.03-1.26,1.54-.05,.06-.14,.07-.21,.11,.02-.08,.02-.18,.06-.25,.71-1.35,1.41-2.71,2.14-4.05,.56-1.02,1.14-2.04,1.77-3.03,.63-1,1.32-1.96,1.98-2.94,.05-.08,.14-.14,.21-.21,.03-.03,.07-.05,.1-.08,.02,.07,.06,.13,.05,.2-.01,.09-.05,.17-.09,.26-.56,1.14-.99,2.35-1.66,3.44-.49,.8-.94,1.62-1.45,2.47Z"/><path d="M110.91,189.65c.42-.06,.77,.08,1.13-.13,.4-.23,.84-.08,1.19,.17,.62,.45,.83,1.17,1.06,1.84,.05,.14-.03,.39-.14,.52-.48,.55-.9,1.17-1.65,1.45-1.34,.5-2.28-.51-2.46-1.6-.14-.88,.18-1.62,.88-2.24m2.21,1.11c-.02-.07-.01-.15-.05-.2-.35-.37-.75-.4-1.2-.18-.4,.2-.88,.26-1.06,.77-.12,.33,.17,1.61,.42,1.84,.03,.03,.09,.06,.12,.05,.41-.08,.83-.11,1.21-.27,.28-.12,.55-.37,.7-.64,.24-.42,.26-.88-.13-1.38Z"/><path d="M133.19,62.62c.12-.24,.24-.41,.36-.59,.25,.24-.02,.43-.08,.63-.4,1.36-.81,2.71-1.22,4.06-.16,.52-.36,1.03-.54,1.54-.06,.17-.1,.36-.19,.51-.48,.83-.96,1.66-1.46,2.49-.06,.1-.16,.18-.26,.26-.04,.03-.1,.02-.15,.03,0-.05-.02-.1,0-.14,.1-.25,.2-.51,.3-.76,.05-.13,.11-.25,.13-.38,.01-.08-.02-.24-.06-.25-.11-.03-.26-.03-.34,.03-.21,.17-.39,.38-.58,.56-.04,.04-.1,.06-.15,.08,0-.07-.05-.15-.02-.2,.18-.29,.34-.62,.57-.86,.62-.65,1-1.45,1.47-2.19,.29-.47,.66-.9,.87-1.41,.44-1.04,.8-2.12,1.2-3.19,.02-.06,.1-.11,.14-.23Z"/><path d="M68.42,110.12c.69,0,1.31-.07,1.91,.01,1.33,.19,2.66,.1,3.99,.14,.1,0,.19,.08,.29,.12-.08,.11-.15,.29-.25,.31-.42,.08-.84,.16-1.26,.15-1.65-.03-3.3-.13-4.95-.13-1.36,0-2.66-.25-3.95-.61-.37-.1-.71-.3-1.05-.48-.09-.05-.13-.19-.19-.28,.12-.04,.25-.09,.37-.11,.06-.01,.14,.02,.2,.05,1.32,.72,2.75,.89,4.23,.83,.2,0,.39,0,.66,0Z"/><path d="M139.54,77.96c.15,.7,.33,1.32,.44,1.96,.32,1.99,.56,3.99,1.28,5.89,.03,.07,0,.17,0,.25-.08-.02-.18-.03-.25-.07-.43-.27-.62-.72-.72-1.17-.24-1.07-.4-2.15-.6-3.22-.19-1-.4-2-.58-3-.17-.92-.28-1.85-.45-2.77-.11-.61-.3-1.21-.43-1.81-.02-.1,.04-.22,.07-.33,.07,.07,.18,.13,.2,.21,.21,.8,.4,1.6,.61,2.4,.14,.53,.29,1.06,.44,1.66Z"/><path d="M74.18,83.27c0,.49,0,.91,0,1.32,0,.04-.03,.08-.05,.13-.03-.04-.09-.09-.09-.13-.1-.96-.19-1.93-.3-2.89-.08-.67-.18-1.34-.29-2.01-.09-.53-.18-1.05-.29-1.57-.19-.88-.4-1.75-.58-2.63-.04-.21-.01-.44,0-.66,0-.09,.05-.17,.07-.26,.02,.09,.05,.18,.07,.26,.25,.93,.51,1.85,.75,2.78,.2,.78,.38,1.56,.58,2.34,.27,1.07,.1,2.17,.15,3.32Z"/><path d="M132.46,188.62c-.12,.83-.24,1.59-.36,2.35-.07,.41-.15,.82-.23,1.23-.03,.14-.03,.28-.09,.41-.05,.11-.15,.2-.23,.29-.04-.12-.13-.25-.12-.36,.1-.71,.22-1.43,.35-2.14,.06-.36,.19-.72,.23-1.08,.07-.76,.2-1.54,.13-2.29-.13-1.36-.19-2.75-.67-4.06-.03-.07,0-.17,.02-.25,.08,.03,.21,.03,.24,.09,.11,.2,.21,.4,.28,.62,.56,1.67,.44,3.4,.45,5.19Z"/><path d="M90.22,178.99c.09-.19,.13-.34,.2-.48,.02-.04,.17-.08,.18-.06,.05,.07,.11,.17,.1,.24-.12,.57-.26,1.13-.39,1.7-.04,.16-.05,.33-.05,.49,0,.61,0,1.23,0,1.84,0,.87,.17,1.71,.4,2.55,.19,.69,.11,1.43,.46,2.09,.03,.06-.07,.21-.14,.29-.02,.02-.19-.05-.24-.11-.07-.08-.14-.19-.16-.3-.16-.87-.32-1.73-.47-2.6-.06-.32-.06-.66-.16-.97-.3-1-.12-2.02-.12-3.03,0-.54,.22-1.08,.38-1.65Z"/><path d="M96.71,154.65c.04-.06,.03-.09,.04-.11,.87-1.02,1.8-1.97,2.97-2.65,.17-.1,.39-.11,.6-.15,.25-.05,.5-.11,.76-.11,.12,0,.24,.1,.35,.15-.08,.05-.14,.12-.23,.15-1.51,.59-2.75,1.55-3.88,2.7-.37,.37-.78,.7-1.18,1.04-.07,.06-.17,.1-.26,.15,.02-.13,0-.3,.07-.39,.22-.26,.48-.49,.76-.77Z"/><path d="M74.47,177.85c-.69-.39-1.34-.75-1.93-1.19-.5-.37-1.11-.65-1.36-1.29-.04-.09-.03-.2-.05-.3,.1,.04,.23,.05,.3,.13,.6,.69,1.37,1.17,2.12,1.64,1.31,.83,2.69,1.54,4.26,1.76,.12,.02,.23,.14,.34,.22-.17,.07-.35,.24-.49,.2-1.02-.25-2.01-.58-2.92-1.11-.06-.03-.13-.04-.27-.05Z"/><path d="M135.26,189.8c-.13,1.25-.27,2.42-.74,3.51-.04,.1-.11,.22-.19,.28-.04,.03-.24-.06-.23-.1,0-.16,.03-.33,.09-.47,.71-1.71,.67-3.52,.63-5.32,0-.2-.13-.4-.13-.6,0-.13,.14-.26,.22-.39,.07,.12,.19,.23,.2,.36,.06,.88,.11,1.77,.16,2.73Z"/><path d="M132.31,174.16c-.2-.53-.39-.99-.59-1.45-.03-.06-.08-.12-.08-.19-.02-.23-.02-.46-.03-.69,.13,.17,.31,.31,.4,.5,.52,1.18,1.05,2.36,1.51,3.57,.22,.57,.28,1.21,.42,1.81,.01,.05-.01,.1,0,.15,.07,.19,.3,.46,.07,.55-.28,.11-.32-.2-.38-.46-.11-.54-.33-1.05-.42-1.59-.12-.79-.51-1.46-.9-2.21Z"/><path d="M84.06,180.35c.45,.05,.82,.09,1.19,.15,.05,0,.09,.08,.14,.12-.06,.06-.11,.16-.17,.16-.37,.01-.75,.06-1.1,0-.72-.14-1.43-.34-2.14-.52-.47-.12-.94-.23-1.4-.36-.26-.08-.5-.23-.76-.28-.4-.08-.08-.37-.18-.53,.08-.01,.19-.07,.25-.03,1.04,.61,2.27,.65,3.36,1.13,.23,.1,.54-.11,.82,.16Z"/><path d="M127.92,75.78c.38-.73,.71-1.43,1.08-2.11,.39-.7,.82-1.38,1.24-2.06,.04-.06,.13-.1,.19-.15-.02,.08-.01,.17-.05,.25-.44,.92-.88,1.84-1.32,2.77-.25,.53-.45,1.1-.74,1.6-.18,.3-.5,.52-.76,.78,0,0-.13-.1-.12-.12,.14-.31,.29-.62,.47-.96Z"/><path d="M64.88,128.57c-.61-.04-1.09-.26-1.57-.48-.1-.05-.13-.23-.19-.35,.11-.02,.27-.1,.34-.05,.76,.51,1.66,.38,2.49,.58,.67,.16,1.35,.29,2.03,.45,.11,.03,.2,.18,.3,.27-.11,.06-.22,.16-.32,.16-.23-.02-.45-.09-.68-.14-.55-.1-1.1-.2-1.65-.3-.23-.04-.45-.1-.75-.15Z"/><path d="M67.98,169.73c1.11,1.22,2.25,2.34,3.65,3.14,.18,.11,.32,.3,.47,.46,.05,.06,.08,.14,.11,.21-.09,0-.21,.05-.28,.02-.27-.13-.55-.25-.77-.44-1.01-.87-2.16-1.57-3.04-2.59-.16-.19-.3-.41-.43-.63-.05-.08-.07-.19-.11-.29,.13,.01,.27,.03,.4,.12Z"/><path d="M134.71,62.65c-.33,.57-.62,1.12-.93,1.65-.05,.09-.16,.14-.25,.2-.01-.09-.07-.2-.04-.27,.39-1.03,.73-2.06,.89-3.16,.02-.13,.12-.25,.2-.35,.02-.03,.18,0,.18,.01,.03,.14,.07,.29,.04,.42-.1,.49,.49,1-.1,1.5Z"/><path d="M50.24,146.46c-.72-.58-1.4-1.12-2.08-1.66-.35-.28-.7-.56-1.03-.87-.11-.1-.13-.3-.19-.45,.15,.05,.32,.06,.45,.15,.24,.15,.46,.33,.67,.51,.76,.65,1.51,1.31,2.26,1.97,.06,.05,.12,.09,.15,.16,.13,.23,.4,.6,.33,.68-.17,.21-.29-.05-.38-.21-.05-.08-.1-.16-.18-.27Z"/><path d="M137.03,66.9c.1,.52,.22,.97,.29,1.43,.03,.2-.04,.42-.06,.63-.07-.16-.16-.32-.2-.5-.26-1.05-.5-2.1-.76-3.15-.22-.87-.47-1.72-.7-2.59-.02-.08,.02-.17,.03-.25,.05,.05,.13,.09,.15,.15,.18,.54,.36,1.08,.51,1.63,.23,.82,.42,1.64,.64,2.46,.01,.04,.07,.07,.1,.18Z"/><path d="M64.88,105.7c.65,.08,1.23,.15,1.8,.27,.14,.03,.24,.2,.36,.3-.17,.05-.34,.15-.5,.13-.53-.06-1.05-.17-1.58-.25-.55-.08-1.07-.22-1.55-.52-.08-.05-.11-.19-.16-.3,.1,0,.21-.01,.3,.01,.42,.11,.83,.24,1.32,.36Z"/><path d="M92.36,167.7c.06-.08,.1-.11,.11-.15,.06-.19,.18-.41,.38-.29,.17,.11,.02,.31-.07,.49-.28,.57-.51,1.16-.75,1.75-.16,.4-.28,.82-.45,1.21-.06,.14-.24,.23-.37,.34,0-.15,0-.31,.02-.45,.22-1.01,.67-1.93,1.13-2.9Z"/><path d="M53.04,148.82c.44,.53,.83,1.03,1.23,1.53,.04,.05,.07,.1,.11,.16-.07,.02-.15,.07-.2,.04-.21-.09-.45-.16-.6-.32-.37-.37-.7-.79-1.05-1.18-.1-.11-.25-.19-.3-.32-.08-.2-.11-.43-.16-.65,.19,.11,.39,.21,.56,.33,.14,.1,.25,.24,.4,.4Z"/><path d="M101.77,152.76c-.8,.38-1.52,.76-2.24,1.13-.06,.03-.13,.05-.2,.04-.07,0-.13-.03-.2-.05,.04-.05,.08-.11,.12-.15,.09-.08,.17-.18,.27-.23,.95-.48,1.9-.95,2.85-1.43,.12-.06,.24-.14,.36-.2,.04-.02,.09,0,.14,0,0,.05,0,.13-.02,.15-.25,.16-.51,.31-.76,.47-.1,.07-.17,.17-.34,.26Z"/><path d="M95.9,154.68c.05-.5,.4-.88,.71-1.22,.55-.63,1.22-1.16,1.84-1.73,.07-.06,.15-.13,.23-.14,.08-.01,.18,.03,.27,.05-.04,.05-.08,.11-.13,.15-.39,.35-.78,.7-1.19,1.03-.52,.43-.97,.92-1.34,1.49-.09,.14-.24,.24-.4,.37Z"/><path d="M125.41,81.35c.22-.63,.46-1.26,.74-1.88,.26-.55,.56-1.09,.85-1.63,.04-.08,.14-.13,.22-.18,.04-.02,.1,0,.14,0,0,.05,0,.11-.01,.15-.56,1.09-1.12,2.17-1.69,3.26-.05,.1-.14,.18-.26,.28Z"/><path d="M124.82,81.54c-.04,.09-.02,.15-.04,.18-.22,.27-.45,.54-.67,.81-.13-.39,.21-.61,.34-.91,.27-.6,.58-1.18,.88-1.77,.07-.14,.16-.28,.26-.4,.04-.06,.13-.07,.2-.11-.02,.08-.02,.17-.06,.25-.29,.64-.58,1.28-.91,1.95Z"/><path d="M130.65,187.1c-.01,.23,.05,.42,.03,.61-.04,.49-.11,.98-.19,1.47-.02,.11-.13,.19-.2,.29-.06-.12-.18-.25-.18-.36,.02-.3,.03-.62,.15-.89,.21-.49,.1-.99,.14-1.49,0-.1,.06-.2,.08-.31,.05,.1,.12,.2,.15,.3,.03,.11,.04,.23,.02,.38Z"/><path d="M134.67,182.42c-.1-.42-.2-.77-.29-1.13-.01-.06,.02-.16,.06-.18,.04-.03,.15,0,.19,.03,.08,.08,.14,.18,.18,.29,.2,.5,.31,1.02,.29,1.56,0,.06-.06,.11-.09,.17-.07-.05-.17-.08-.19-.14-.07-.17-.1-.35-.15-.6Z"/><path d="M95.83,154.68c-.15,.36-.33,.73-.54,1.08-.23,.4-.48,.78-.72,1.17-.07,.12-.13,.25-.21,.35-.03,.04-.13,.03-.19,.04,0-.05,0-.11,.02-.15,.16-.3,.32-.61,.5-.89,.36-.54,.73-1.07,1.14-1.6Z"/><path d="M73.14,74.86c.37,.27,.59,.68,.74,1.32,.05,.22,.11,.45,.14,.68,.01,.06-.03,.13-.05,.2-.03-.05-.07-.09-.09-.14-.14-.31-.3-.61-.42-.93-.13-.34-.21-.7-.32-1.12Z"/><path d="M75.54,89.06c-.14,.03-.23,.03-.33,.03,.05-.39,.11-.79,.17-1.18,0-.03,.08-.06,.12-.05,.06,.02,.15,.07,.15,.1-.01,.36-.04,.72-.1,1.11Z"/><path d="M138.21,194.08c0,.19,.04,.34-.01,.43-.07,.12-.21,.21-.32,.31-.02-.14-.06-.28-.05-.42,0-.16,.06-.31,.09-.47,.02-.13-.05-.34,.18-.28,.06,.02,.08,.23,.11,.43Z"/><path d="M75.1,87.55c-.15-.37,0-.74-.02-1.12,0-.11,.13-.23,.19-.35,.03,.13,.07,.26,.08,.39,.03,.38,.02,.75-.26,1.08Z"/><path d="M124.16,81.24c-.19,.36-.41,.68-.64,1-.04,.05-.13,.05-.2,.08,0-.07-.04-.18,0-.21,.28-.29,.36-.76,.84-.86Z"/><path d="M75.03,84.34c.05,.36-.03,.7,.18,1.01,.04,.05-.03,.17-.05,.27-.1-.04-.23-.05-.29-.12-.07-.08-.1-.22-.09-.32,.05-.29,.14-.58,.25-.83Z"/><path d="M72.85,90.06c.04-.15,.06-.23,.12-.29,.02-.02,.15,.03,.17,.08,.03,.09,.02,.19,0,.29-.03,.17-.08,.49-.11,.49-.4-.02-.08-.34-.18-.57Z"/><path d="M75.1,89.87c0-.12,.02-.22,.07-.28,.18-.24,.29,.1,.45,.07-.06,.08-.11,.2-.2,.25-.07,.04-.19,0-.32-.03Z"/><path d="M95.02,157.08c.07-.07,.1-.13,.14-.13,.04,0,.08,.04,.12,.07-.06,.09-.11,.2-.19,.28-.06,.06-.17,.08-.25,.12,.05-.1,.1-.2,.18-.34Z"/><path d="M76.13,88.03s.05,.05,.05,.1c-.03-.02-.06-.04-.05-.1Z"/><path d="M75.03,87.55s-.02,.09-.05,.14c0-.05,0-.09,.05-.14Z"/><path d="M125.34,81.35s-.02,.09-.05,.14c0-.05,0-.09,.05-.14Z"/><path d="M135.37,61.47s-.05,.05-.1,.05c.02-.03,.04-.06,.1-.05Z"/></g></svg>